<svg xmlns="http://www.w3.org/2000/svg" width="123" height="12" viewBox="0 0 123 12" fill="none">
  <g clip-path="url(#clip0_1203_6381)">
    <path
      d="M41.2517 4.35005V2.91357H32.0132V4.54488H38.0137L31.5216 10.3182V11.7392H41.591V10.1091H34.8953L41.2517 4.35005Z"
      fill="white" />
    <path d="M53.7794 8.62939C53.7773 8.63982 53.7738 8.64935 53.7717 8.65918H53.7794V8.62939Z" fill="white" />
    <path
      d="M53.1579 4.7616C52.7115 4.07877 52.0359 3.53502 51.2244 3.20536C49.2406 2.47937 47.0117 2.47637 45.0254 3.19702C44.1904 3.52865 43.4874 4.07366 43.0072 4.7616C42.5182 5.49264 42.2716 6.33014 42.2955 7.17876V7.29792C42.2642 8.18755 42.5104 9.06767 43.0072 9.8423C43.4835 10.5421 44.1864 11.1001 45.0254 11.4444C45.9772 11.8283 47.0151 12.0173 48.0614 11.9973C49.0776 12.0194 50.0897 11.875 51.0462 11.5713C51.7866 11.3402 52.4407 10.9337 52.9368 10.3964C53.3732 9.8876 53.6594 9.29095 53.7693 8.66023H51.3004V8.64563C51.2439 8.89302 51.1285 9.127 50.9618 9.33207C50.7951 9.53714 50.5809 9.70862 50.3335 9.83515C49.648 10.162 48.8732 10.3148 48.0952 10.2766C47.4851 10.2911 46.8791 10.1835 46.3228 9.96205C45.8353 9.75679 45.4388 9.41473 45.1952 8.98941C44.9897 8.62994 44.8652 8.23872 44.8285 7.83742H53.8088V7.16327C53.832 6.3264 53.6077 5.49864 53.1579 4.7616ZM45.1955 5.64457C45.4452 5.22852 45.8408 4.89494 46.3231 4.69368C46.8796 4.47263 47.4855 4.36549 48.0955 4.38028C48.7245 4.36533 49.3496 4.47231 49.9267 4.69368C50.3983 4.87345 50.7912 5.18339 51.0462 5.57695C51.2214 5.86062 51.3358 6.17034 51.3838 6.49061H44.8782C44.932 6.19544 45.0391 5.9098 45.1955 5.64457Z"
      fill="white" />
    <path d="M91.5908 8.62646C91.5908 8.63689 91.5852 8.64642 91.5831 8.65626H91.5908V8.62646Z" fill="white" />
    <path
      d="M90.9726 4.75866C90.5259 4.07616 89.8504 3.53258 89.0392 3.20273C87.0555 2.47634 84.8263 2.47334 82.8401 3.19438C82.0052 3.526 81.3021 4.07088 80.8216 4.75866C80.3328 5.48989 80.0862 6.32743 80.1099 7.17613V7.29529C80.0788 8.18499 80.325 9.06517 80.8216 9.83996C81.2982 10.5397 82.0012 11.0975 82.8401 11.4418C83.7918 11.8258 84.8296 12.0149 85.8758 11.9947C86.8921 12.0169 87.9043 11.8725 88.8609 11.569C89.6013 11.3377 90.2553 10.9312 90.7515 10.3941C91.188 9.88527 91.474 9.2886 91.5837 8.65789H89.1148V8.64329C89.058 8.89032 88.9425 9.1239 88.7758 9.32859C88.6091 9.53329 88.3951 9.70443 88.1479 9.83072C87.4624 10.1578 86.6874 10.3108 85.9093 10.2725C85.2992 10.287 84.6934 10.1794 84.1372 9.95793C83.6497 9.75257 83.253 9.41041 83.0093 8.98498C82.8046 8.626 82.6809 8.23537 82.645 7.83479H91.6252V7.16064C91.6478 6.32356 91.4229 5.49573 90.9726 4.75866ZM83.0099 5.64194C83.2597 5.2258 83.6554 4.8922 84.1379 4.69104C84.6942 4.46996 85.3 4.36282 85.9099 4.37765C86.5391 4.3627 87.1643 4.46968 87.7414 4.69104C88.2131 4.87082 88.6059 5.18076 88.8609 5.57431C89.0358 5.85801 89.1502 6.16758 89.1985 6.48768H82.6929C82.7465 6.19258 82.8535 5.90702 83.0099 5.64194Z"
      fill="white" />
    <path
      d="M74.6392 9.74955L74.5548 10.1234H74.5207L74.385 9.74955L71.9603 2.91064H69.0607L66.6019 9.74955L66.4662 10.1234H66.4317L66.3639 9.74955L64.0408 2.91064H61.4126L64.7701 11.7395H67.8905L70.4003 4.85594L70.4681 4.61642H70.5016L70.5694 4.85594L73.0964 11.7395H76.2337L79.5912 2.91064H76.9623L74.6392 9.74955Z"
      fill="white" />
    <path
      d="M113.611 2.81965H110.802L107.925 6.1904H105.476V0.175781H103.01V11.7358H105.476V7.85179H107.874L111.042 11.7358H113.936L109.963 7.03584L113.611 2.81965Z"
      fill="white" />
    <path d="M15.5667 2.91431H13.092V11.7387H15.5667V2.91431Z" fill="white" />
    <path d="M15.5667 0H13.092V1.83894H15.5667V0Z" fill="white" />
    <path
      d="M2.74606 6.90629H10.3215V5.18562H2.74606V2.49438H11.0001V0.624756H0V11.7368H11.1014V9.88202H2.74606V6.90629Z"
      fill="white" />
    <path
      d="M58.3794 9.08887V0.178955H55.9149V9.02125C55.9149 10.5218 57.5692 11.7393 59.612 11.7393H61.1522V9.90393H59.612C58.9317 9.90393 58.3794 9.53959 58.3794 9.08887Z"
      fill="white" />
    <path
      d="M25.162 2.65137H25.1039C24.111 2.65137 23.0415 2.71422 22.0334 3.23019C21.5313 3.45646 21.1068 3.79698 20.8039 4.21654C20.6955 4.41494 20.4183 4.98244 20.4183 4.98244L20.1385 4.88026L20.6496 3.85072C20.7427 3.6759 20.8046 3.48937 20.8329 3.29781C20.8424 3.21291 20.8521 3.11907 20.8521 3.03417V2.90756H18.3539V11.7388H20.8319V7.68053C20.8255 7.13977 20.9572 6.60469 21.2174 6.11506C21.4743 5.62795 21.8821 5.21486 22.3936 4.92346C22.9837 4.60271 23.6679 4.4429 24.3605 4.46409C25.344 4.46409 26.0769 4.69378 26.5684 5.1445C27.0505 5.59552 27.2916 6.28457 27.2916 7.20359V11.7388H29.7504V6.94888C29.7504 5.49394 29.355 4.41345 28.5451 3.70743C27.7352 3.0014 26.6083 2.65137 25.162 2.65137Z"
      fill="white" />
    <path
      d="M97.3999 3.23092C96.9084 3.45952 96.4904 3.79398 96.1845 4.20326C96.1845 4.21429 96.1717 4.21429 96.1717 4.22561C96.0704 4.41537 95.7919 4.98555 95.7919 4.98555L95.5093 4.88575L96.0157 3.8577C96.0993 3.69365 96.1589 3.52087 96.193 3.34352C96.2031 3.33046 96.2077 3.31461 96.2058 3.29884C96.2058 3.22049 96.2183 3.1201 96.2183 3.04175V2.90769H93.7234V11.7354H96.2058V7.67887C96.2037 7.58559 96.2079 7.49229 96.2183 7.39944C96.2457 6.95417 96.3704 6.51778 96.5856 6.1143C96.8444 5.62965 97.2526 5.21907 97.7635 4.92955C98.3513 4.60735 99.0349 4.44778 99.7263 4.47137C100.287 4.48023 100.846 4.52754 101.398 4.61288V2.77274C101.034 2.6944 100.659 2.65687 100.284 2.66103C99.2822 2.62023 98.2863 2.81701 97.3999 3.23092Z"
      fill="white" />
    <path d="M119.061 6.41016H117.092V8.14781H119.061V6.41016Z" fill="white" />
    <path d="M121.029 8.14819H119.06V9.88585H121.029V8.14819Z" fill="white" />
    <path d="M123.001 9.88623H121.031V11.6239H123.001V9.88623Z" fill="white" />
    <path d="M121.029 4.67285H119.06V6.41051H121.029V4.67285Z" fill="white" />
    <path d="M123.001 2.93481H121.031V4.67247H123.001V2.93481Z" fill="white" />
  </g>
  <defs>
    <clipPath id="clip0_1203_6381">
      <rect width="123" height="12" fill="white" />
    </clipPath>
  </defs>
</svg>